<?xml version="1.0" encoding="UTF-8"?>
<svg id="Layer_1" data-name="Layer 1" xmlns="http://www.w3.org/2000/svg" viewBox="0 0 1080 1080">
  <defs>
    <style>
      .cls-1 {
        fill: #d74a9a;
      }
    </style>
  </defs>
  <path class="cls-1" d="M180.39,894.77H22.46v111.62c0,28.25,22.9,51.15,51.15,51.15h106.77v-162.77Z"/>
  <path class="cls-1" d="M742.51,427.49h-90.01v-90.01c0-173.98-141.04-315.02-315.02-315.02h0c-173.98,0-315.02,141.04-315.02,315.02v237.1H180.39V292.23c0-63.18,51.22-114.4,114.4-114.4h91.38c63.18,0,114.4,51.22,114.4,114.4v282.36h282.36c63.18,0,114.4,51.22,114.4,114.4v91.38c0,63.18-51.22,114.4-114.4,114.4H500.57v162.77h241.95c173.98,0,315.02-141.04,315.02-315.02h0c0-173.98-141.04-315.02-315.02-315.02Z"/>
</svg>